<?xml version="1.0" encoding="utf-8"?>
<!-- Generator: Adobe Illustrator 26.0.3, SVG Export Plug-In . SVG Version: 6.00 Build 0)  -->
<svg version="1.1" id="Layer_1" xmlns="http://www.w3.org/2000/svg" xmlns:xlink="http://www.w3.org/1999/xlink" x="0px" y="0px"
	 viewBox="0 0 215.6 83" style="enable-background:new 0 0 215.6 83;" xml:space="preserve">
<style type="text/css">
	.st0{fill:#616161;}
	.st1{fill:#F37726;}
</style>
<path class="st0" d="M27,63.4v-3.7l4.8-0.8V25.3L27,24.5v-3.7h12.5l13.7,32.4h0.2l13.3-32.4h12.9v3.7l-4.8,0.8v33.6l4.8,0.8v3.7
	H64.2v-3.7l5-0.8V28.6h-0.1L55.3,61.9h-3.8L37.1,28.7H37l0.2,17.8v12.4l5.2,0.8v3.7H27z M91.3,76.2c-0.6,0-1.2-0.1-1.8-0.2
	c-0.7-0.1-1.3-0.2-1.7-0.3l0.6-4.5c0.5,0.1,0.9,0.1,1.4,0.1c0.6,0,1,0,1.2,0c1.2,0,2.3-0.5,3-1.4c0.9-1.2,1.6-2.5,2.2-3.8l1.4-3.3
	L86.4,35.9L83,35.4v-3.7h13.3v3.7L92.5,36l6.2,15.8l1.5,4.1h0.2l7.3-20l-4-0.6v-3.7h13v3.7l-3.3,0.5l-12.5,32.4
	c-0.5,1.4-1.3,2.8-2.1,4.1c-0.8,1.2-1.8,2.1-3,2.8C94.4,75.9,92.9,76.3,91.3,76.2z M135,64c-2.5,0-5.1-0.4-7.5-1.1
	c-2.5-0.8-4.8-2-6.9-3.5v-9.1h4.5l1,6.7c1.3,0.8,2.7,1.4,4.1,1.8c1.6,0.4,3.2,0.7,4.8,0.6c1.7,0.1,3.4-0.2,5-0.9
	c1.3-0.5,2.3-1.4,3.1-2.5c1.4-2.2,1.5-4.9,0.2-7.2c-0.8-1.1-1.9-2-3.1-2.6c-1.9-0.9-3.8-1.6-5.9-2c-2.6-0.6-5.1-1.5-7.4-2.7
	c-1.9-1-3.4-2.4-4.6-4.2c-1.1-1.7-1.6-3.6-1.6-5.6c0-2.1,0.6-4.2,1.8-6c1.2-1.8,2.9-3.2,4.9-4.2c2.3-1.1,4.8-1.6,7.4-1.5
	c2.7-0.1,5.4,0.4,7.9,1.4c2.1,0.8,4,1.9,5.7,3.3v8.5H144l-1-6.1c-1-0.8-2.1-1.3-3.3-1.8c-1.6-0.5-3.2-0.7-4.9-0.7
	c-1.5,0-3,0.3-4.3,0.9c-1.2,0.5-2.2,1.4-2.9,2.4c-0.7,1.1-1,2.4-1,3.6c0,1.2,0.3,2.3,0.9,3.2c0.8,1.1,1.9,1.9,3.1,2.4
	c1.9,0.8,3.8,1.5,5.8,1.9c4.4,1.2,7.8,2.8,10.1,5c2.3,2.1,3.5,5,3.5,8.1c0,2.2-0.6,4.3-1.9,6.1c-1.3,1.8-3.1,3.3-5.2,4.1
	C140.4,63.6,137.7,64.1,135,64z M165.5,63.4v-3.6l4.8-0.8V25.1h-9.7l-0.8,5.9h-4.3V20.8h35.4V31h-4.3l-0.9-5.9H176v33.8l4.8,0.8v3.7
	L165.5,63.4z"/>
<path class="st1" d="M24,83c-5.5-1.6-9.4-4-11.8-7.4C9.9,72,8.7,67.7,8.8,63.3v-8.7c0-3.2-0.7-5.6-2.2-7.4S3,44.6,0,44.6v-6.2
	c3,0,5.2-0.9,6.6-2.6c1.4-1.7,2.2-4.2,2.2-7.4v-8.7C8.7,15.3,9.9,11,12.3,7.4C14.6,4,18.5,1.6,24,0l1.7,5c-2.8,0.8-5.2,2.7-6.6,5.3
	c-1.4,2.9-2.1,6.2-2,9.4v8.7c0.1,2.7-0.6,5.4-1.8,7.8c-1.2,2.2-3,4.1-5.3,5.2c2.3,1.2,4.2,3,5.4,5.3c1.2,2.4,1.8,5.1,1.8,7.8v8.7
	c-0.1,3.2,0.6,6.5,2,9.4c1.4,2.6,3.7,4.5,6.6,5.3L24,83z"/>
<path class="st1" d="M192,82.5l-1.7-4.9c2.8-0.8,5.1-2.7,6.4-5.2c1.4-2.9,2.1-6,2-9.2v-8.5c-0.1-2.7,0.6-5.4,1.9-7.8
	c1.3-2.3,3.3-4.1,5.8-5.1c-2.4-1-4.5-2.7-5.8-5c-1.3-2.4-1.9-5.1-1.9-7.9v-8.6c0.1-3.2-0.6-6.4-2-9.3c-1.3-2.6-3.7-4.4-6.4-5.2
	l1.7-4.9c5.3,1.5,9.2,3.9,11.5,7.2c2.4,3.6,3.6,7.8,3.4,12.1v8.6c0,3.1,0.7,5.6,2.1,7.3c1.4,1.7,3.6,2.6,6.6,2.6v6.1
	c-3,0-5.2,0.9-6.6,2.6c-1.4,1.7-2.1,4.2-2.1,7.3v8.5c0.1,4.3-1.1,8.5-3.4,12.1C201.2,78.5,197.3,80.9,192,82.5z"/>
</svg>
